Coordinates
version=1
nRows=32
nColumns=22
inDegrees=yes

Units are S.I. units (second, meters, Newtons, ...)
If the header above contains a line with 'inDegrees', this indicates whether rotational values are in degrees (yes) or radians (no).

endheader
time	pelvis_tilt	pelvis_list	pelvis_rotation	pelvis_tx	pelvis_ty	pelvis_tz	hip_flexion_r	hip_adduction_r	hip_rotation_r	knee_angle_r	ankle_angle_r	subtalar_angle_r	hip_flexion_l	hip_adduction_l	hip_rotation_l	knee_angle_l	ankle_angle_l	subtalar_angle_l	lumbar_extension	lumbar_bending	lumbar_rotation
      0.01000000	     -2.49252154	     -7.29740378	      4.41932101	     -1.05889507	      0.97719548	     -0.27613153	      5.44460777	      6.96011597	     -7.55319497	    -15.15533873	     10.18367935	     -0.14221071	      2.67675854	     -7.64115498	      5.35977421	     -8.82314522	     12.09675661	     -1.13508296	      2.19370349	      6.60947356	     -6.58354759
      0.02000000	     -2.49042701	     -7.30687740	      4.41742485	     -1.05890081	      0.97719628	     -0.27609096	      5.44793409	      6.97155961	     -7.56035886	    -15.16145415	     10.17432118	     -0.12192604	      2.67850538	     -7.65416642	      5.36109678	     -8.82884371	     12.08311770	     -1.13653775	      2.18887173	      6.62231306	     -6.54997944
      0.03000000	     -2.48958890	     -7.31180947	      4.41760094	     -1.05889933	      0.97719274	     -0.27605464	      5.44943175	      6.97861473	     -7.56607550	    -15.16297048	     10.17294904	     -0.10484177	      2.67829425	     -7.66163735	      5.36194813	     -8.82857793	     12.07534561	     -1.14239718	      2.18617260	      6.63185369	     -6.52707072
      0.04000000	     -2.49023037	     -7.31086426	      4.42237194	     -1.05889959	      0.97718569	     -0.27602390	      5.45053365	      6.97945651	     -7.56768983	    -15.16242808	     10.17333064	     -0.10258662	      2.67982141	     -7.66243803	      5.36193774	     -8.82657832	     12.07334966	     -1.14386988	      2.18280749	      6.63519795	     -6.52039986
      0.05000000	     -2.48962162	     -7.31521593	      4.42497738	     -1.05887951	      0.97717941	     -0.27597548	      5.45024557	      6.98603051	     -7.58595259	    -15.16232307	     10.17642878	     -0.09446705	      2.67783632	     -7.67033325	      5.36961575	     -8.82469140	     12.05796879	     -1.15152921	      2.18150986	      6.64101827	     -6.48572440
      0.06000000	     -2.49063669	     -7.31896096	      4.43099512	     -1.05885542	      0.97717186	     -0.27593718	      5.45203639	      6.99128897	     -7.60193735	    -15.16348400	     10.17958966	     -0.08569125	      2.67061078	     -7.67749130	      5.37373338	     -8.80821363	     12.04199414	     -1.16502844	      2.18069763	      6.64712759	     -6.46340766
      0.07000000	     -2.49198600	     -7.31779857	      4.44250442	     -1.05883780	      0.97716010	     -0.27590664	      5.45314279	      6.99253008	     -7.60192824	    -15.16368832	     10.18009593	     -0.08501514	      2.67078646	     -7.67870198	      5.37191999	     -8.80276395	     12.04048406	     -1.16668853	      2.17898846	      6.64731835	     -6.45840630
      0.08000000	     -2.49738899	     -7.32142193	      4.45228278	     -1.05877089	      0.97714604	     -0.27586833	      5.45161569	      6.99759992	     -7.62749151	    -15.15653501	     10.18944198	     -0.08109172	      2.65528816	     -7.68709209	      5.37961771	     -8.76728263	     12.01757628	     -1.17998348	      2.18814859	      6.64986877	     -6.42938587
      0.09000000	     -2.49912942	     -7.32031742	      4.46865469	     -1.05873791	      0.97713268	     -0.27585015	      5.45240372	      6.99866195	     -7.62583085	    -15.15807988	     10.18981604	     -0.08073873	      2.65394638	     -7.68802144	      5.37720739	     -8.75878508	     12.01566967	     -1.18190193	      2.18692855	      6.64989992	     -6.42481990
      0.10000000	     -2.50611685	     -7.32157783	      4.48129549	     -1.05863150	      0.97711529	     -0.27581757	      5.44724705	      7.00208148	     -7.64727152	    -15.14679855	     10.20146901	     -0.07947380	      2.62361079	     -7.69527757	      5.38891226	     -8.69850079	     11.99039738	     -1.19596713	      2.20128284	      6.64900167	     -6.40659742
      0.11000000	     -2.50759633	     -7.32017742	      4.50033809	     -1.05857920	      0.97710011	     -0.27580652	      5.44634663	      7.00269328	     -7.64416571	    -15.14896574	     10.20158880	     -0.07940015	      2.62098953	     -7.69589085	      5.38693276	     -8.69006066	     11.98850966	     -1.19770812	      2.20087994	      6.64854830	     -6.40184192
      0.12000000	     -2.49139090	     -7.31139996	      4.52150491	     -1.05845182	      0.97711878	     -0.27579211	      5.41204218	      6.99806562	     -7.65396199	    -15.13503168	     10.21067023	     -0.07991276	      2.54691556	     -7.69418601	      5.43281122	     -8.59750753	     11.93365875	     -1.23115100	      2.18757779	      6.63850141	     -6.39582759
      0.13000000	     -2.46778043	     -7.30271766	      4.54444968	     -1.05831755	      0.97713848	     -0.27578387	      5.36419250	      6.99462998	     -7.66325964	    -15.11102792	     10.21874482	     -0.08217015	      2.48934635	     -7.69140523	      5.43349082	     -8.54864846	     11.91762280	     -1.27616085	      2.16716207	      6.63015738	     -6.39293983
      0.14000000	     -2.47109285	     -7.30125403	      4.56444085	     -1.05824779	      0.97712054	     -0.27577091	      5.36315672	      6.99497500	     -7.66103090	    -15.11139287	     10.21937467	     -0.08232464	      2.48856327	     -7.69301887	      5.42845318	     -8.54168416	     11.91723004	     -1.27685747	      2.16968745	      6.62925441	     -6.38753840
      0.15000000	     -2.48391158	     -7.29788658	      4.58408211	     -1.05812273	      0.97709763	     -0.27575096	      5.35573441	      6.99416108	     -7.67398316	    -15.08819815	     10.23100763	     -0.08455457	      2.47618678	     -7.69394747	      5.42267939	     -8.49975277	     11.89768640	     -1.28086968	      2.19069108	      6.62321339	     -6.38489152
      0.16000000	     -2.49079291	     -7.29249598	      4.60646891	     -1.05802737	      0.97708424	     -0.27571363	      5.35006692	      6.99307533	     -7.68016783	    -15.07728418	     10.23796657	     -0.08685208	      2.46699353	     -7.69390681	      5.42295400	     -8.47057103	     11.87079388	     -1.28630867	      2.19857732	      6.61189886	     -6.38882132
      0.17000000	     -2.49390968	     -7.28995557	      4.62578691	     -1.05795117	      0.97707190	     -0.27570582	      5.34834648	      6.99176413	     -7.67786316	    -15.07860660	     10.23852170	     -0.08721102	      2.46679278	     -7.69361741	      5.41944622	     -8.46470254	     11.86764737	     -1.28737304	      2.19990181	      6.61267696	     -6.38548666
      0.18000000	     -2.50342616	     -7.27292970	      4.65654747	     -1.05784705	      0.97706685	     -0.27569053	      5.34058744	      6.97624700	     -7.69851810	    -15.06113266	     10.25063817	     -0.09312567	      2.45818300	     -7.67820498	      5.44203420	     -8.43002005	     11.80585011	     -1.31007780	      2.21158485	      6.58918580	     -6.40672076
      0.19000000	     -2.50767938	     -7.27060617	      4.67365103	     -1.05776971	      0.97705920	     -0.27565916	      5.33946772	      6.97684341	     -7.69817454	    -15.06014745	     10.25180434	     -0.09340795	      2.46000445	     -7.67898431	      5.43859957	     -8.42597335	     11.80482667	     -1.31183498	      2.21147653	      6.58656313	     -6.40249305
      0.20000000	     -2.51958600	     -7.26280123	      4.69571346	     -1.05766155	      0.97704805	     -0.27562231	      5.33162825	      6.97229162	     -7.71489606	    -15.03563102	     10.26269457	     -0.09569283	      2.46988774	     -7.67328015	      5.44241334	     -8.42375936	     11.78524614	     -1.32138331	      2.22444656	      6.57252204	     -6.39976887
      0.21000000	     -2.52423981	     -7.25985446	      4.71254695	     -1.05758955	      0.97704483	     -0.27560213	      5.33240601	      6.97128298	     -7.71340783	    -15.03631429	     10.26285404	     -0.09605932	      2.47343191	     -7.67178171	      5.44221993	     -8.42080250	     11.78240757	     -1.32314480	      2.22063631	      6.57248882	     -6.39758281
      0.22000000	     -2.54355134	     -7.23649424	      4.75802836	     -1.05752628	      0.97702809	     -0.27561445	      5.34542968	      6.94420002	     -7.75134141	    -15.03242851	     10.26951077	     -0.10526623	      2.50257246	     -7.64352129	      5.50042121	     -8.42824121	     11.73632574	     -1.36065086	      2.23499005	      6.54306465	     -6.43257790
      0.23000000	     -2.54857512	     -7.23461839	      4.77359127	     -1.05745105	      0.97702320	     -0.27557858	      5.34637693	      6.94548882	     -7.75123424	    -15.03193942	     10.27033469	     -0.10567514	      2.50695951	     -7.64423223	      5.49989743	     -8.42630196	     11.73588450	     -1.36224897	      2.22897408	      6.54158514	     -6.42495770
      0.24000000	     -2.55365158	     -7.22820924	      4.79493438	     -1.05737907	      0.97702283	     -0.27555139	      5.34326050	      6.94166769	     -7.76326919	    -15.02457168	     10.27521523	     -0.10894110	      2.52114019	     -7.63780454	      5.52113276	     -8.44225905	     11.72501013	     -1.36987646	      2.22249981	      6.53417825	     -6.40068559
      0.25000000	     -2.55858780	     -7.22502920	      4.81226077	     -1.05730464	      0.97702037	     -0.27551992	      5.34447890	      6.94178348	     -7.76204236	    -15.02516665	     10.27554145	     -0.10951743	      2.52560422	     -7.63662602	      5.52149330	     -8.43948629	     11.72387905	     -1.37113531	      2.21489619	      6.53278463	     -6.39543322
      0.26000000	     -2.56298612	     -7.19844281	      4.84984644	     -1.05725161	      0.97701911	     -0.27551608	      5.34642651	      6.91321956	     -7.79325486	    -15.03002349	     10.28869222	     -0.12333392	      2.54014249	     -7.60693906	      5.57632302	     -8.45298440	     11.70113034	     -1.39342522	      2.20436926	      6.50167536	     -6.39735424
      0.27000000	     -2.56803094	     -7.19590843	      4.86438894	     -1.05718445	      0.97701684	     -0.27547611	      5.34746268	      6.91441624	     -7.79251711	    -15.02923771	     10.28971638	     -0.12378184	      2.54485914	     -7.60696672	      5.57640395	     -8.45053292	     11.70021812	     -1.39413012	      2.19514808	      6.50127467	     -6.38878424
      0.28000000	     -2.56843391	     -7.18877480	      4.87957930	     -1.05712283	      0.97701814	     -0.27542658	      5.34153002	      6.91129082	     -7.80003674	    -15.02548116	     10.29744680	     -0.12648910	      2.55341974	     -7.60177922	      5.59843875	     -8.46720726	     11.69131337	     -1.39629970	      2.18135840	      6.49283884	     -6.35340057
      0.29000000	     -2.57299481	     -7.18487576	      4.89053027	     -1.05706508	      0.97701564	     -0.27536630	      5.34212968	      6.91178768	     -7.80046677	    -15.02466140	     10.29908956	     -0.12690525	      2.55745316	     -7.60190868	      5.59993590	     -8.46567469	     11.69054079	     -1.39674440	      2.17170205	      6.48935865	     -6.34599439
      0.30000000	     -2.57252657	     -7.17381955	      4.90260703	     -1.05700731	      0.97701493	     -0.27530909	      5.33474527	      6.90368590	     -7.81291149	    -15.02132470	     10.31024449	     -0.12909705	      2.56413132	     -7.59337831	      5.62186656	     -8.48244028	     11.68294768	     -1.39735955	      2.15901029	      6.47676661	     -6.31006320
      0.31000000	     -2.57710750	     -7.16967121	      4.90808944	     -1.05696011	      0.97700775	     -0.27523273	      5.33570297	      6.90428544	     -7.81522187	    -15.01997616	     10.31231351	     -0.12931972	      2.56728817	     -7.59397965	      5.62295781	     -8.48093219	     11.68247441	     -1.39749773	      2.15049362	      6.47260375	     -6.30525617
      0.32000000	     -2.57923056	     -7.15824070	      4.91632208	     -1.05690785	      0.97699956	     -0.27516967	      5.33150540	      6.89449490	     -7.83532845	    -15.01686037	     10.32675697	     -0.13091047	      2.57374260	     -7.58545453	      5.63872048	     -8.49305473	     11.67639645	     -1.39682531	      2.14292782	      6.46069700	     -6.27528748
